<?xml version="1.0" encoding="utf-8"?>
<!-- Generator: Adobe Illustrator 19.2.1, SVG Export Plug-In . SVG Version: 6.00 Build 0)  -->
<svg version="1.1" id="layer" xmlns="http://www.w3.org/2000/svg" xmlns:xlink="http://www.w3.org/1999/xlink" x="0px" y="0px"
	 viewBox="0 0 652 652" style="enable-background:new 0 0 652 652;" xml:space="preserve">
<style type="text/css">
	.st0{fill:#00C3A5;}
	.st1{fill:#ABABAB;}
</style>
<title>Group 12</title>
<desc>Created with Sketch.</desc>
<path class="st0" d="M420.5,315h6.7l0.5,5.4h0.1c1.7-2.5,5.8-5.7,10.7-5.9v7.1c-7,1.4-10.3,6-10.3,10.3v16.9h-7.7V315z M385.1,331.9
	v-0.1c0-10.4,5-17.8,15.5-17.8c9.7,0,14.2,5.6,14.2,17.3c0,1.2-0.1,3-0.2,4.2h-21.3c0.6,4.7,3.3,7.6,9,7.6c3.6,0,7-0.3,10.1-0.7v6.4
	c-3.5,0.6-6.5,0.9-10.3,0.9C391,349.7,385.1,344.1,385.1,331.9L385.1,331.9z M393.1,329.8H407c0-5.3-1.4-9.4-6.6-9.4
	C395,320.4,393.2,324.8,393.1,329.8z M349.9,315h6.7c0,0,0.3,3.3,0.4,4.5h0.1c1.9-2.9,5.7-5.6,10.4-5.6c7.9,0,11.9,4.2,11.9,12.8
	v21.9h-7.7v-20.3c0-5.5-2.1-7.6-6.3-7.3c-3.8,0.3-7.9,4.6-7.9,9.9v17.7h-7.7V315z M313.7,315h6.7c0,0,0.3,3.3,0.4,4.5h0.1
	c1.9-2.9,5.7-5.6,10.4-5.6c7.9,0,11.9,4.2,11.9,12.8v21.9h-7.7v-20.3c0-5.5-2.1-7.6-6.3-7.3c-3.8,0.3-7.9,4.6-7.9,9.9v17.7h-7.7V315
	z M283.5,314.3c3.3-0.3,7-0.4,10.5-0.4c8.2,0,13.2,3.2,13.2,12.2v22.5h-6.9l-0.3-3.4h-0.1c-2.4,2.6-5.8,4-10.2,4
	c-5.8,0-10.5-3.8-10.5-11.3c0-7,5.8-13.5,20.4-10.4v-2c0-4-2.4-5.1-7-5.1c-2.8,0-5.3,0.2-8.9,0.5V314.3z M299.4,333
	c-6.2-1.6-12.3,0.4-12.3,5.1c0,3.2,2.1,5,5.2,4.9c2.5-0.1,5.2-1.2,7.1-2.9L299.4,333L299.4,333z M273.2,301.5v47.2h-7.7v-46.3
	L273.2,301.5z M229.2,315h6.5l0.4,3.6h0.1c2.3-2.7,6-4.7,10.4-4.7c8.6,0,13.3,6.4,13.3,17.3v0.3c0,10.5-4.6,18-14.3,18
	c-3.4,0-6.7-1.3-8.7-2.8v14.8h-7.7V315z M236.8,324.8v15.5c1.6,1.2,4.1,2.3,6.6,2.3c6.5,0,8.4-5,8.4-11c0-5.4-1-10.6-7.3-10.6
	C241.5,321.1,238.5,322.9,236.8,324.8L236.8,324.8z M205.7,331.8c0,7.4,3.2,11.3,9.6,11.3c2.7,0,5.4-0.3,7.9-0.7v6.2
	c-2,0.4-5.4,0.8-8.9,0.8c-9.5,0-16.6-5.2-16.6-17.7c0-12.5,7.1-17.7,16.6-17.7c3.5,0,6.8,0.4,8.9,0.8v6.2c-2.5-0.3-5.2-0.7-7.9-0.7
	C208.9,320.5,205.7,324.4,205.7,331.8z M161.1,332v-0.3c0-11.3,5.2-17.7,15.9-17.7c10.6,0,15.8,6.4,15.8,17.7v0.3
	c0,11.3-5.2,17.7-15.8,17.7C166.3,349.7,161.1,343.2,161.1,332L161.1,332z M177,320.4c-5.4,0-8,3.7-8,11.4c0,7.7,2.5,11.3,8,11.3
	c5.4,0,7.9-3.6,7.9-11.3C184.9,324,182.4,320.4,177,320.4z M120.4,348.7v-47.2h11.8c16.5,0,24.2,5,24.2,23.6s-7.7,23.6-24.2,23.6
	H120.4z M147.6,325.1c0-10.6-2.2-16-13.5-16h-5.3V341h5.3C145.4,341,147.6,335.7,147.6,325.1z M65.3,345.8c1.7-4.2,6.5-10,11.4-13
	l10.8,17.9l-11.1,8.1L65.3,345.8L65.3,345.8z M49.3,358.7L34,348.9c11.6-21.6,33.1-37,58.5-39.8l4.2,13.1
	C75.9,326.3,58.4,340.1,49.3,358.7z M52.6,314.3l1.9-22.9h13.7l1.7,20.7c-7.9,2.7-12.5,4.9-17.8,8.1c-3.9,2.4-7.5,5.2-10.7,8.4
	L26,322.1l4.2-13.1L52.6,314.3z"/>
<path class="st1" d="M503.9,315h6.7l0.5,5.4h0.1c1.7-2.5,5.8-5.7,10.7-5.9v7.1c-7,1.4-10.3,6-10.3,10.3v16.9h-7.7V315z M612.8,314
	c-4.4,0-8.1,1.9-10.4,4.7h-0.1l-0.4-3.6h-6.5v46.7h7.7v-14.8c2,1.5,5.3,2.8,8.7,2.8c9.7,0,14.3-7.5,14.3-18v-0.3
	C626,320.4,621.4,314,612.8,314L612.8,314z M609.7,342.7c-2.5,0-5-1.1-6.6-2.3v-15.5c1.7-1.9,4.6-3.7,7.7-3.7
	c6.3,0,7.3,5.2,7.3,10.6C618,337.6,616.2,342.7,609.7,342.7L609.7,342.7z M540,314c-10.7,0-15.9,6.4-15.9,17.7v0.3
	c0,11.3,5.2,17.7,15.9,17.7c10.6,0,15.8-6.4,15.8-17.7v-0.3C555.8,320.4,550.6,314,540,314L540,314z M540,343.1c-5.4,0-8-3.6-8-11.3
	c0-7.7,2.5-11.4,8-11.4c5.4,0,7.9,3.7,7.9,11.4S545.4,343.1,540,343.1z M488.4,341.9v-11.6h-7.6v-7.1h15.7v25.1
	c-2.9,0.5-9.7,1.3-14.7,1.3c-14.3,0-23-8.2-23.1-24.6c0-16.4,8.8-24.6,23.1-24.6c4.9,0,11.3,0.7,14,1.2v7.3
	c-3.5-0.4-9.6-0.9-13.3-0.9c-9.9,0-15.1,6.3-15.1,17c0,10.8,5.2,17,15.1,17C484,342.1,486.7,342,488.4,341.9L488.4,341.9z
	 M575.4,343.1c4,0,6.6-1.4,6.6-8.7V315h7.7l0,18.2c0,11.6-4.2,16.5-14.3,16.5c-10.2,0-14.3-4.9-14.3-16.5l0-18.2h7.7v19.4
	C568.8,341.6,571.5,343.1,575.4,343.1z"/>
</svg>
